<?xml version="1.0" encoding="UTF-8"?>
<svg xmlns="http://www.w3.org/2000/svg" xmlns:xlink="http://www.w3.org/1999/xlink" width="176pt" height="176pt" viewBox="0 0 176 176" version="1.1">
<defs>
<linearGradient id="linear0" gradientUnits="userSpaceOnUse" x1="800.47" y1="444.44" x2="816.86" y2="391.6" gradientTransform="matrix(0.997224,0,0,0.997224,-715.856989,-337.131396)">
<stop offset="0" style="stop-color:rgb(100%,75.686275%,19.607843%);stop-opacity:1;"/>
<stop offset="1" style="stop-color:rgb(100%,75.686275%,5.490196%);stop-opacity:1;"/>
</linearGradient>
</defs>
<g id="surface1">
<path style=" stroke:none;fill-rule:nonzero;fill:url(#linear0);" d="M 150.222656 150.222656 L 139.96875 111.957031 C 140.597656 110.601562 141.167969 109.214844 141.695312 107.800781 L 175.988281 87.996094 L 141.695312 68.199219 C 141.167969 66.785156 140.597656 65.398438 139.96875 64.042969 L 150.222656 25.777344 L 111.957031 36.03125 C 110.601562 35.402344 109.214844 34.824219 107.800781 34.304688 L 87.996094 0 L 68.191406 34.304688 C 66.773438 34.824219 65.386719 35.402344 64.03125 36.03125 L 25.769531 25.777344 L 36.050781 64.042969 C 35.421875 65.398438 34.84375 66.785156 34.324219 68.199219 L 0.03125 87.996094 L 34.324219 107.800781 C 34.84375 109.214844 35.421875 110.601562 36.050781 111.957031 L 25.796875 150.222656 L 64.0625 139.96875 C 65.417969 140.597656 66.804688 141.175781 68.21875 141.695312 L 88.023438 176 L 107.851562 141.695312 C 109.265625 141.175781 110.652344 140.597656 112.007812 139.96875 Z M 150.222656 150.222656 "/>
<path style=" stroke:none;fill-rule:nonzero;fill:rgb(100%,94.509804%,0%);fill-opacity:1;" d="M 132.75 87.996094 C 132.75 112.710938 112.710938 132.75 87.996094 132.75 C 63.277344 132.75 43.238281 112.710938 43.238281 87.996094 C 43.238281 63.277344 63.277344 43.238281 87.996094 43.238281 C 112.710938 43.238281 132.75 63.277344 132.75 87.996094 Z M 132.75 87.996094 "/>
</g>
</svg>
