<?xml version="1.0" encoding="UTF-8"?>
<svg xmlns="http://www.w3.org/2000/svg" xmlns:xlink="http://www.w3.org/1999/xlink" width="176pt" height="176pt" viewBox="0 0 176 176" version="1.1">
<g id="surface1">
<path style=" stroke:none;fill-rule:nonzero;fill:rgb(83.921569%,83.137255%,80.784314%);fill-opacity:1;" d="M 176.007812 88.003906 C 176.007812 136.609375 136.609375 176.007812 88.003906 176.007812 C 39.402344 176.007812 0 136.609375 0 88.003906 C 0 39.402344 39.402344 0 88.003906 0 C 136.609375 0 176.007812 39.402344 176.007812 88.003906 Z M 176.007812 88.003906 "/>
<path style=" stroke:none;fill-rule:nonzero;fill:rgb(73.72549%,73.333333%,69.411765%);fill-opacity:1;" d="M 108.214844 158.9375 C 73.683594 158.949219 42.335938 138.757812 28.070312 107.3125 C 13.800781 75.863281 19.25 38.976562 42.003906 13 C 12.496094 31.105469 -3.652344 64.832031 0.742188 99.175781 C 5.140625 133.515625 29.265625 162.085938 62.382812 172.175781 C 95.5 182.265625 131.457031 171.996094 154.253906 145.941406 C 140.410156 154.457031 124.46875 158.957031 108.214844 158.9375 Z M 108.214844 158.9375 "/>
<path style=" stroke:none;fill-rule:nonzero;fill:rgb(90.588235%,89.803922%,83.137255%);fill-opacity:1;" d="M 98.167969 35.875 C 98.167969 45.460938 90.398438 53.230469 80.808594 53.230469 C 71.222656 53.230469 63.449219 45.460938 63.449219 35.875 C 63.449219 26.285156 71.222656 18.515625 80.808594 18.515625 C 90.398438 18.515625 98.167969 26.285156 98.167969 35.875 Z M 98.167969 35.875 "/>
<path style=" stroke:none;fill-rule:nonzero;fill:rgb(90.588235%,89.803922%,83.137255%);fill-opacity:1;" d="M 156.890625 59.976562 C 156.890625 75.449219 144.34375 87.996094 128.871094 87.996094 C 113.394531 87.996094 100.851562 75.449219 100.851562 59.976562 C 100.851562 44.5 113.394531 31.957031 128.871094 31.957031 C 144.34375 31.957031 156.890625 44.5 156.890625 59.976562 Z M 156.890625 59.976562 "/>
<path style=" stroke:none;fill-rule:nonzero;fill:rgb(90.588235%,89.803922%,83.137255%);fill-opacity:1;" d="M 80.808594 79.320312 C 80.808594 84.117188 76.921875 88.003906 72.125 88.003906 C 67.328125 88.003906 63.441406 84.117188 63.441406 79.320312 C 63.441406 74.523438 67.328125 70.636719 72.125 70.636719 C 76.921875 70.636719 80.808594 74.523438 80.808594 79.320312 Z M 80.808594 79.320312 "/>
<path style=" stroke:none;fill-rule:nonzero;fill:rgb(90.588235%,89.803922%,83.137255%);fill-opacity:1;" d="M 34.03125 101.101562 C 34.03125 105.898438 30.144531 109.785156 25.347656 109.785156 C 20.550781 109.785156 16.664062 105.898438 16.664062 101.101562 C 16.664062 96.308594 20.550781 92.417969 25.347656 92.417969 C 30.144531 92.417969 34.03125 96.308594 34.03125 101.101562 Z M 34.03125 101.101562 "/>
<path style=" stroke:none;fill-rule:nonzero;fill:rgb(90.588235%,89.803922%,83.137255%);fill-opacity:1;" d="M 56.453125 56.898438 C 56.453125 64.339844 50.421875 70.375 42.976562 70.375 C 35.535156 70.375 29.5 64.339844 29.5 56.898438 C 29.5 49.453125 35.535156 43.421875 42.976562 43.421875 C 50.421875 43.421875 56.453125 49.453125 56.453125 56.898438 Z M 56.453125 56.898438 "/>
<path style=" stroke:none;fill-rule:nonzero;fill:rgb(90.588235%,89.803922%,83.137255%);fill-opacity:1;" d="M 150.75 119.257812 C 150.75 124.484375 146.511719 128.726562 141.28125 128.726562 C 136.050781 128.726562 131.8125 124.484375 131.8125 119.257812 C 131.8125 114.027344 136.050781 109.785156 141.28125 109.785156 C 146.511719 109.785156 150.75 114.027344 150.75 119.257812 Z M 150.75 119.257812 "/>
<path style=" stroke:none;fill-rule:nonzero;fill:rgb(90.588235%,89.803922%,83.137255%);fill-opacity:1;" d="M 71.152344 143.203125 C 71.152344 150.648438 65.117188 156.683594 57.671875 156.683594 C 50.230469 156.683594 44.195312 150.648438 44.195312 143.203125 C 44.195312 135.761719 50.230469 129.726562 57.671875 129.726562 C 65.117188 129.726562 71.152344 135.761719 71.152344 143.203125 Z M 71.152344 143.203125 "/>
</g>
</svg>
