<?xml version="1.0" encoding="UTF-8"?>
<svg xmlns="http://www.w3.org/2000/svg" xmlns:xlink="http://www.w3.org/1999/xlink" width="176pt" height="92pt" viewBox="0 0 176 92" version="1.1">
<g id="surface1">
<path style=" stroke:none;fill-rule:nonzero;fill:rgb(85.882353%,85.882353%,85.490196%);fill-opacity:1;" d="M 70.097656 27.199219 C 68.324219 20.464844 61.082031 15.410156 52.398438 15.398438 C 52.121094 15.398438 51.84375 15.398438 51.570312 15.398438 C 47.210938 9.144531 38.851562 4.941406 29.226562 4.921875 C 15.121094 4.921875 3.671875 13.925781 3.652344 25.078125 C 3.652344 26.210938 3.773438 27.339844 4.003906 28.445312 C 1.527344 30.402344 0.00390625 33.027344 0 35.914062 C 0.046875 38.40625 1.109375 40.773438 2.941406 42.476562 C 2.699219 42.128906 2.566406 41.71875 2.558594 41.296875 C 2.558594 38.265625 10.082031 35.613281 21.371094 34.148438 C 21.304688 33.898438 21.273438 33.644531 21.273438 33.386719 C 21.273438 28.726562 32.1875 24.96875 45.625 24.988281 C 59.066406 25.003906 69.960938 28.808594 69.957031 33.464844 C 69.945312 34.105469 69.75 34.730469 69.394531 35.261719 C 77.050781 36.816406 81.832031 39.007812 81.828125 41.421875 C 81.824219 41.714844 81.757812 42.003906 81.628906 42.269531 C 83.082031 40.785156 83.886719 39.089844 83.886719 37.28125 C 83.894531 32.484375 78.046875 28.402344 70.097656 27.199219 Z M 70.097656 27.199219 "/>
<path style=" stroke:none;fill-rule:nonzero;fill:rgb(80.784314%,80.784314%,80.392157%);fill-opacity:1;" d="M 69.40625 35.578125 C 69.765625 35.042969 69.964844 34.421875 69.980469 33.78125 C 70.035156 29.125 59.175781 25.226562 45.734375 25.082031 C 32.289062 24.9375 21.351562 28.59375 21.300781 33.261719 C 21.296875 33.519531 21.328125 33.773438 21.390625 34.023438 C 10.09375 35.386719 2.542969 37.96875 2.503906 41 C 2.449219 45.660156 20.152344 49.628906 42.042969 49.867188 C 63.933594 50.101562 81.714844 46.496094 81.753906 41.855469 C 81.8125 39.429688 77.058594 37.199219 69.40625 35.578125 Z M 69.40625 35.578125 "/>
<path style=" stroke:none;fill-rule:nonzero;fill:rgb(83.921569%,83.137255%,80.784314%);fill-opacity:1;" d="M 105.542969 31.65625 C 105.542969 49.066406 91.335938 63.183594 73.808594 63.183594 C 56.28125 63.183594 42.070312 49.066406 42.070312 31.65625 C 42.070312 14.242188 56.28125 0.125 73.808594 0.125 C 91.335938 0.125 105.542969 14.242188 105.542969 31.65625 Z M 105.542969 31.65625 "/>
<path style=" stroke:none;fill-rule:nonzero;fill:rgb(73.72549%,73.333333%,69.411765%);fill-opacity:1;" d="M 81.097656 57.070312 C 68.644531 57.070312 57.339844 49.835938 52.195312 38.570312 C 47.050781 27.304688 49.015625 14.089844 57.21875 4.785156 C 46.585938 11.273438 40.769531 23.351562 42.355469 35.652344 C 43.941406 47.949219 52.636719 58.179688 64.574219 61.796875 C 76.511719 65.414062 89.476562 61.742188 97.699219 52.414062 C 92.707031 55.464844 86.957031 57.078125 81.097656 57.070312 Z M 81.097656 57.070312 "/>
<path style=" stroke:none;fill-rule:nonzero;fill:rgb(90.588235%,89.803922%,83.137255%);fill-opacity:1;" d="M 77.480469 12.976562 C 77.480469 16.414062 74.675781 19.199219 71.214844 19.199219 C 67.757812 19.199219 64.953125 16.414062 64.953125 12.976562 C 64.953125 9.542969 67.757812 6.757812 71.214844 6.757812 C 74.675781 6.757812 77.480469 9.542969 77.480469 12.976562 Z M 77.480469 12.976562 "/>
<path style=" stroke:none;fill-rule:nonzero;fill:rgb(90.588235%,89.803922%,83.137255%);fill-opacity:1;" d="M 98.652344 21.613281 C 98.652344 27.160156 94.128906 31.65625 88.542969 31.65625 C 82.960938 31.65625 78.4375 27.160156 78.4375 21.613281 C 78.4375 16.066406 82.960938 11.574219 88.542969 11.574219 C 94.128906 11.574219 98.652344 16.066406 98.652344 21.613281 Z M 98.652344 21.613281 "/>
<path style=" stroke:none;fill-rule:nonzero;fill:rgb(90.588235%,89.803922%,83.137255%);fill-opacity:1;" d="M 71.210938 28.542969 C 71.210938 30.257812 69.8125 31.648438 68.082031 31.648438 C 66.355469 31.648438 64.953125 30.257812 64.953125 28.542969 C 64.953125 26.824219 66.355469 25.433594 68.082031 25.433594 C 69.8125 25.433594 71.210938 26.824219 71.210938 28.542969 Z M 71.210938 28.542969 "/>
<path style=" stroke:none;fill-rule:nonzero;fill:rgb(90.588235%,89.803922%,83.137255%);fill-opacity:1;" d="M 54.34375 36.351562 C 54.34375 38.066406 52.941406 39.460938 51.214844 39.460938 C 49.488281 39.460938 48.085938 38.066406 48.085938 36.351562 C 48.085938 34.632812 49.488281 33.242188 51.214844 33.242188 C 52.941406 33.242188 54.34375 34.632812 54.34375 36.351562 Z M 54.34375 36.351562 "/>
<path style=" stroke:none;fill-rule:nonzero;fill:rgb(90.588235%,89.803922%,83.137255%);fill-opacity:1;" d="M 62.429688 20.511719 C 62.429688 23.175781 60.257812 25.335938 57.574219 25.335938 C 54.890625 25.335938 52.714844 23.175781 52.714844 20.511719 C 52.714844 17.847656 54.890625 15.6875 57.574219 15.6875 C 60.257812 15.6875 62.429688 17.847656 62.429688 20.511719 Z M 62.429688 20.511719 "/>
<path style=" stroke:none;fill-rule:nonzero;fill:rgb(90.588235%,89.803922%,83.137255%);fill-opacity:1;" d="M 96.4375 42.851562 C 96.4375 44.722656 94.910156 46.242188 93.023438 46.242188 C 91.140625 46.242188 89.609375 44.722656 89.609375 42.851562 C 89.609375 40.976562 91.140625 39.460938 93.023438 39.460938 C 94.910156 39.460938 96.4375 40.976562 96.4375 42.851562 Z M 96.4375 42.851562 "/>
<path style=" stroke:none;fill-rule:nonzero;fill:rgb(90.588235%,89.803922%,83.137255%);fill-opacity:1;" d="M 67.730469 51.429688 C 67.730469 54.09375 65.554688 56.253906 62.871094 56.253906 C 60.1875 56.253906 58.015625 54.09375 58.015625 51.429688 C 58.015625 48.765625 60.1875 46.605469 62.871094 46.605469 C 65.554688 46.605469 67.730469 48.765625 67.730469 51.429688 Z M 67.730469 51.429688 "/>
<path style=" stroke:none;fill-rule:nonzero;fill:rgb(85.882353%,85.882353%,85.490196%);fill-opacity:1;" d="M 158.472656 63.097656 C 156.222656 54.542969 147.015625 48.121094 135.980469 48.105469 C 135.632812 48.105469 135.28125 48.105469 134.929688 48.105469 C 129.414062 40.191406 118.773438 34.820312 106.535156 34.800781 C 88.617188 34.773438 74.089844 46.238281 74.042969 60.414062 C 74.042969 61.859375 74.195312 63.300781 74.496094 64.714844 C 71.34375 67.195312 69.40625 70.535156 69.40625 74.203125 C 69.40625 77.324219 70.789062 80.210938 73.144531 82.539062 C 72.839844 82.097656 72.671875 81.578125 72.660156 81.042969 C 72.660156 77.195312 82.226562 73.828125 96.570312 71.960938 C 96.488281 71.644531 96.445312 71.320312 96.445312 70.996094 C 96.445312 65.074219 110.308594 60.296875 127.390625 60.324219 C 144.472656 60.355469 158.3125 65.175781 158.304688 71.09375 C 158.292969 71.910156 158.042969 72.703125 157.589844 73.382812 C 167.320312 75.355469 173.394531 78.136719 173.390625 81.207031 C 173.386719 81.578125 173.300781 81.945312 173.136719 82.28125 C 174.964844 80.398438 176.003906 78.242188 176.003906 75.941406 C 176.007812 69.789062 168.574219 64.601562 158.472656 63.097656 Z M 158.472656 63.097656 "/>
<path style=" stroke:none;fill-rule:nonzero;fill:rgb(80.784314%,80.784314%,80.392157%);fill-opacity:1;" d="M 157.582031 73.402344 C 158.035156 72.722656 158.28125 71.929688 158.292969 71.113281 C 158.292969 65.195312 144.460938 60.367188 127.382812 60.34375 C 110.300781 60.320312 96.445312 65.09375 96.433594 71.015625 C 96.433594 71.339844 96.476562 71.664062 96.558594 71.980469 C 82.214844 73.84375 72.65625 77.207031 72.648438 81.0625 C 72.648438 86.984375 95.179688 91.820312 123.015625 91.863281 C 150.855469 91.90625 173.386719 87.144531 173.386719 81.222656 C 173.386719 78.15625 167.3125 75.375 157.582031 73.402344 Z M 157.582031 73.402344 "/>
</g>
</svg>
