<?xml version="1.0" encoding="UTF-8"?>
<svg xmlns="http://www.w3.org/2000/svg" xmlns:xlink="http://www.w3.org/1999/xlink" width="176pt" height="105pt" viewBox="0 0 176 105" version="1.1">
<defs>
<linearGradient id="linear0" gradientUnits="userSpaceOnUse" x1="456.91" y1="431.57" x2="472.42" y2="381.59" gradientTransform="matrix(0.571206,0,0,0.57043,-180.169804,-188.75193)">
<stop offset="0" style="stop-color:rgb(100%,75.686275%,19.607843%);stop-opacity:1;"/>
<stop offset="1" style="stop-color:rgb(100%,75.686275%,5.490196%);stop-opacity:1;"/>
</linearGradient>
</defs>
<g id="surface1">
<path style=" stroke:none;fill-rule:nonzero;fill:rgb(85.882353%,85.882353%,85.490196%);fill-opacity:1;" d="M 70.058594 40.074219 C 68.277344 33.3125 61.027344 28.246094 52.351562 28.246094 L 51.527344 28.246094 C 47.175781 21.96875 38.796875 17.761719 29.171875 17.761719 C 15.074219 17.761719 3.644531 26.847656 3.644531 38.058594 C 3.640625 39.207031 3.761719 40.355469 4.003906 41.480469 C 1.523438 43.453125 0.00390625 46.09375 0.00390625 48.992188 C 0.0585938 51.496094 1.121094 53.875 2.957031 55.582031 C 2.714844 55.234375 2.582031 54.824219 2.570312 54.398438 C 2.570312 51.347656 10.085938 48.695312 21.367188 47.183594 C 21.304688 46.933594 21.273438 46.675781 21.273438 46.417969 C 21.273438 41.734375 32.164062 37.941406 45.597656 37.941406 C 59.035156 37.941406 69.933594 41.734375 69.933594 46.417969 C 69.917969 47.0625 69.71875 47.691406 69.363281 48.226562 C 77.015625 49.773438 81.796875 51.96875 81.796875 54.398438 C 81.792969 54.691406 81.726562 54.980469 81.597656 55.242188 C 82.976562 53.9375 83.789062 52.136719 83.847656 50.234375 C 83.859375 45.363281 78.015625 41.273438 70.058594 40.074219 Z M 70.058594 40.074219 "/>
<path style=" stroke:none;fill-rule:nonzero;fill:rgb(80.784314%,80.784314%,80.392157%);fill-opacity:1;" d="M 69.445312 49.578125 C 69.824219 49.058594 70.046875 48.441406 70.09375 47.800781 C 70.320312 43.121094 59.628906 38.796875 46.203125 38.136719 C 32.78125 37.476562 21.71875 40.730469 21.464844 45.410156 C 21.457031 45.667969 21.476562 45.925781 21.527344 46.179688 C 10.191406 47.121094 2.546875 49.417969 2.398438 52.453125 C 2.171875 57.132812 19.699219 61.792969 41.554688 62.863281 C 63.410156 63.9375 81.316406 61.015625 81.539062 56.339844 C 81.683594 53.921875 77.015625 51.5 69.445312 49.578125 Z M 69.445312 49.578125 "/>
<path style=" stroke:none;fill-rule:nonzero;fill:url(#linear0);" d="M 117.582031 81.324219 L 112.023438 60.617188 C 112.367188 59.882812 112.675781 59.128906 112.960938 58.335938 L 131.546875 47.617188 L 112.960938 36.90625 C 112.675781 36.140625 112.390625 35.386719 112.023438 34.652344 L 117.582031 13.945312 L 96.863281 19.523438 C 96.128906 19.179688 95.375 18.867188 94.582031 18.589844 L 83.847656 0.0273438 L 73.121094 18.589844 C 72.347656 18.867188 71.601562 19.160156 70.863281 19.523438 L 50.128906 13.972656 L 55.6875 34.679688 C 55.34375 35.414062 55.03125 36.167969 54.75 36.933594 L 36.164062 47.644531 L 54.75 58.363281 C 55.03125 59.128906 55.320312 59.882812 55.6875 60.644531 L 50.128906 81.351562 L 70.863281 75.800781 C 71.601562 76.144531 72.347656 76.457031 73.121094 76.738281 L 83.847656 95.300781 L 94.582031 76.710938 C 95.347656 76.429688 96.101562 76.136719 96.863281 75.773438 Z M 117.582031 81.324219 "/>
<path style=" stroke:none;fill-rule:nonzero;fill:rgb(100%,94.509804%,0%);fill-opacity:1;" d="M 108.113281 47.652344 C 108.113281 61.027344 97.253906 71.871094 83.859375 71.871094 C 70.464844 71.871094 59.605469 61.027344 59.605469 47.652344 C 59.605469 34.273438 70.464844 23.429688 83.859375 23.429688 C 97.253906 23.429688 108.113281 34.273438 108.113281 47.652344 Z M 108.113281 47.652344 "/>
<path style=" stroke:none;fill-rule:nonzero;fill:rgb(85.882353%,85.882353%,85.490196%);fill-opacity:1;" d="M 158.457031 75.980469 C 156.171875 67.386719 146.984375 60.949219 135.953125 60.949219 C 135.605469 60.949219 135.25 60.949219 134.902344 60.949219 C 129.378906 53.007812 118.730469 47.621094 106.5 47.621094 C 88.582031 47.621094 74.058594 59.167969 74.058594 73.410156 C 74.058594 74.863281 74.210938 76.3125 74.515625 77.734375 C 71.367188 80.261719 69.445312 83.617188 69.445312 87.335938 C 69.445312 90.472656 70.839844 93.371094 73.195312 95.710938 C 72.886719 95.265625 72.714844 94.742188 72.703125 94.203125 C 72.703125 90.332031 82.253906 86.9375 96.589844 85.039062 C 96.507812 84.722656 96.464844 84.394531 96.464844 84.066406 C 96.464844 78.113281 110.304688 73.292969 127.382812 73.292969 C 144.464844 73.292969 158.296875 78.113281 158.296875 84.066406 C 158.28125 84.878906 158.035156 85.671875 157.589844 86.347656 C 167.300781 88.3125 173.394531 91.09375 173.394531 94.1875 C 173.390625 94.558594 173.304688 94.929688 173.144531 95.265625 C 174.964844 93.371094 176 91.199219 176 88.894531 C 176 82.699219 168.558594 77.5 158.457031 75.980469 Z M 158.457031 75.980469 "/>
<path style=" stroke:none;fill-rule:nonzero;fill:rgb(80.784314%,80.784314%,80.392157%);fill-opacity:1;" d="M 157.585938 86.359375 C 158.03125 85.683594 158.277344 84.890625 158.292969 84.078125 C 158.292969 78.128906 144.453125 73.304688 127.378906 73.304688 C 110.304688 73.304688 96.460938 78.128906 96.460938 84.078125 C 96.457031 84.40625 96.5 84.730469 96.585938 85.046875 C 82.246094 86.949219 72.699219 90.34375 72.699219 94.214844 C 72.699219 100.164062 95.238281 104.992188 123.042969 104.992188 C 150.851562 104.992188 173.40625 100.148438 173.40625 94.179688 C 173.40625 91.113281 167.316406 88.324219 157.585938 86.359375 Z M 157.585938 86.359375 "/>
</g>
</svg>
