<?xml version="1.0" encoding="UTF-8"?>
<svg xmlns="http://www.w3.org/2000/svg" xmlns:xlink="http://www.w3.org/1999/xlink" width="176pt" height="77pt" viewBox="0 0 176 77" version="1.1">
<g id="surface1">
<path style=" stroke:none;fill-rule:nonzero;fill:rgb(80.784314%,80.784314%,80.392157%);fill-opacity:1;" d="M 176 18.082031 C 166.113281 18.082031 160.929688 15.285156 156.355469 12.8125 C 152.140625 10.546875 148.507812 8.582031 140.796875 8.582031 C 133.089844 8.582031 129.480469 10.574219 125.242188 12.8125 C 120.667969 15.285156 115.484375 18.082031 105.597656 18.082031 C 95.710938 18.082031 90.519531 15.285156 85.953125 12.8125 C 81.738281 10.546875 78.105469 8.582031 70.394531 8.582031 C 62.6875 8.582031 59.078125 10.574219 54.84375 12.8125 C 50.273438 15.285156 45.085938 18.082031 35.195312 18.082031 C 25.300781 18.082031 20.125 15.277344 15.570312 12.8125 C 11.363281 10.546875 7.730469 8.582031 0.0195312 8.582031 L 0.0195312 0.0351562 C 9.90625 0.0351562 15.089844 2.832031 19.664062 5.296875 C 23.871094 7.570312 27.507812 9.53125 35.214844 9.53125 C 42.921875 9.53125 46.53125 7.542969 50.773438 5.296875 C 55.34375 2.832031 60.53125 0.0351562 70.414062 0.0351562 C 80.300781 0.0351562 85.488281 2.832031 90.058594 5.296875 C 94.265625 7.570312 97.902344 9.53125 105.617188 9.53125 C 113.332031 9.53125 116.933594 7.542969 121.167969 5.296875 C 125.742188 2.832031 130.925781 0.0351562 140.820312 0.0351562 C 150.710938 0.0351562 155.890625 2.832031 160.464844 5.296875 C 164.675781 7.570312 168.3125 9.53125 176.019531 9.53125 Z M 176 18.082031 "/>
<path style=" stroke:none;fill-rule:nonzero;fill:rgb(80.784314%,80.784314%,80.392157%);fill-opacity:1;" d="M 176 47.523438 C 166.113281 47.523438 160.929688 44.726562 156.355469 42.261719 C 152.140625 39.988281 148.507812 38.027344 140.796875 38.027344 C 133.089844 38.027344 129.480469 40.015625 125.242188 42.261719 C 120.667969 44.726562 115.484375 47.523438 105.597656 47.523438 C 95.710938 47.523438 90.519531 44.726562 85.953125 42.261719 C 81.738281 39.988281 78.105469 38.027344 70.394531 38.027344 C 62.6875 38.027344 59.078125 40.015625 54.84375 42.261719 C 50.273438 44.726562 45.085938 47.523438 35.195312 47.523438 C 25.300781 47.523438 20.125 44.726562 15.550781 42.261719 C 11.34375 39.988281 7.707031 38.027344 0 38.027344 L 0 29.476562 C 9.886719 29.476562 15.070312 32.273438 19.644531 34.777344 C 23.851562 37.046875 27.484375 39.007812 35.195312 39.007812 C 42.902344 39.007812 46.511719 37.019531 50.75 34.777344 C 55.324219 32.304688 60.511719 29.476562 70.394531 29.476562 C 80.28125 29.476562 85.46875 32.273438 90.039062 34.777344 C 94.246094 37.046875 97.882812 39.007812 105.597656 39.007812 C 113.3125 39.007812 116.914062 37.019531 121.148438 34.777344 C 125.722656 32.304688 130.90625 29.476562 140.796875 29.476562 C 150.691406 29.476562 155.871094 32.273438 160.441406 34.777344 C 164.65625 37.046875 168.292969 39.007812 176 39.007812 Z M 176 47.523438 "/>
<path style=" stroke:none;fill-rule:nonzero;fill:rgb(80.784314%,80.784314%,80.392157%);fill-opacity:1;" d="M 176 76.964844 C 166.113281 76.964844 160.929688 74.167969 156.355469 71.703125 C 152.140625 69.429688 148.507812 67.46875 140.796875 67.46875 C 133.089844 67.46875 129.480469 69.457031 125.242188 71.703125 C 120.667969 74.167969 115.484375 76.964844 105.597656 76.964844 C 95.710938 76.964844 90.519531 74.167969 85.953125 71.703125 C 81.738281 69.429688 78.105469 67.46875 70.394531 67.46875 C 62.6875 67.46875 59.078125 69.457031 54.84375 71.703125 C 50.273438 74.167969 45.085938 76.964844 35.195312 76.964844 C 25.300781 76.964844 20.125 74.167969 15.550781 71.703125 C 11.34375 69.429688 7.707031 67.46875 0 67.46875 L 0 58.925781 C 9.886719 58.925781 15.070312 61.722656 19.644531 64.1875 C 23.851562 66.460938 27.484375 68.421875 35.195312 68.421875 C 42.902344 68.421875 46.511719 66.433594 50.75 64.1875 C 55.324219 61.722656 60.511719 58.925781 70.394531 58.925781 C 80.28125 58.925781 85.46875 61.722656 90.039062 64.1875 C 94.246094 66.460938 97.882812 68.421875 105.597656 68.421875 C 113.3125 68.421875 116.914062 66.433594 121.148438 64.1875 C 125.722656 61.722656 130.90625 58.925781 140.796875 58.925781 C 150.691406 58.925781 155.871094 61.722656 160.441406 64.1875 C 164.65625 66.460938 168.292969 68.421875 176 68.421875 Z M 176 76.964844 "/>
</g>
</svg>
