<?xml version="1.0" encoding="UTF-8"?>
<svg xmlns="http://www.w3.org/2000/svg" xmlns:xlink="http://www.w3.org/1999/xlink" width="176pt" height="95pt" viewBox="0 0 176 95" version="1.1">
<g id="surface1">
<path style=" stroke:none;fill-rule:nonzero;fill:rgb(80%,80%,80%);fill-opacity:1;" d="M 157.253906 30.476562 C 154.84375 21.292969 144.980469 14.402344 133.164062 14.382812 C 132.785156 14.382812 132.414062 14.382812 132.042969 14.382812 C 126.128906 5.890625 114.730469 0.125 101.625 0.105469 C 82.425781 0.105469 66.847656 12.382812 66.820312 27.589844 C 66.816406 29.140625 66.976562 30.691406 67.296875 32.210938 C 63.917969 34.902344 61.851562 38.460938 61.84375 42.398438 C 61.914062 45.796875 63.359375 49.019531 65.851562 51.34375 C 65.527344 50.882812 65.34375 50.335938 65.324219 49.769531 C 65.324219 45.632812 75.574219 42.027344 90.9375 40.023438 C 90.847656 39.683594 90.804688 39.335938 90.800781 38.984375 C 90.800781 32.628906 105.671875 27.5 123.925781 27.546875 C 142.175781 27.59375 157.046875 32.753906 157.046875 39.113281 C 157.023438 39.988281 156.761719 40.835938 156.28125 41.570312 C 166.699219 43.683594 173.179688 46.664062 173.179688 49.964844 C 173.175781 50.363281 173.082031 50.757812 172.910156 51.117188 C 174.789062 49.335938 175.894531 46.894531 175.988281 44.3125 C 176.011719 37.660156 168.070312 32.117188 157.253906 30.476562 Z M 157.253906 30.476562 "/>
<path style=" stroke:none;fill-rule:nonzero;fill:rgb(73.72549%,73.72549%,73.72549%);fill-opacity:1;" d="M 156.277344 41.515625 C 156.761719 40.785156 157.023438 39.933594 157.039062 39.058594 C 157.039062 32.703125 142.207031 27.546875 123.917969 27.535156 C 105.625 27.519531 90.796875 32.675781 90.796875 39.03125 C 90.796875 39.382812 90.839844 39.730469 90.929688 40.070312 C 75.574219 42.085938 65.332031 45.714844 65.332031 49.851562 C 65.332031 56.203125 89.484375 61.363281 119.273438 61.375 C 149.0625 61.390625 173.222656 56.242188 173.230469 49.890625 C 173.207031 46.59375 166.71875 43.613281 156.277344 41.515625 Z M 156.277344 41.515625 "/>
<path style=" stroke:none;fill-rule:nonzero;fill:rgb(85.882353%,85.882353%,85.490196%);fill-opacity:1;" d="M 121.242188 55.609375 C 118.171875 43.9375 105.644531 35.183594 90.625 35.164062 C 90.144531 35.164062 89.671875 35.164062 89.191406 35.164062 C 81.683594 24.398438 67.199219 17.046875 50.546875 17 C 26.152344 16.957031 6.355469 32.59375 6.320312 51.921875 C 6.320312 53.894531 6.523438 55.863281 6.933594 57.789062 C 2.644531 61.1875 0.0117188 65.734375 0 70.734375 C 0 74.992188 1.886719 78.929688 5.089844 82.105469 C 4.667969 81.515625 4.429688 80.8125 4.414062 80.085938 C 4.414062 74.824219 17.433594 70.242188 36.953125 67.695312 C 36.839844 67.265625 36.78125 66.824219 36.785156 66.382812 C 36.785156 58.308594 55.652344 51.789062 78.90625 51.824219 C 102.15625 51.855469 120.992188 58.4375 120.976562 66.515625 C 120.957031 67.625 120.621094 68.707031 120.011719 69.632812 C 133.253906 72.324219 141.519531 76.109375 141.511719 80.300781 C 141.503906 80.808594 141.386719 81.304688 141.167969 81.761719 C 143.65625 79.199219 145.066406 76.257812 145.074219 73.128906 C 145.089844 64.765625 134.984375 57.695312 121.242188 55.609375 Z M 121.242188 55.609375 "/>
<path style=" stroke:none;fill-rule:nonzero;fill:rgb(80.784314%,80.784314%,80.392157%);fill-opacity:1;" d="M 120.023438 69.691406 C 120.636719 68.765625 120.972656 67.679688 120.992188 66.570312 C 120.992188 58.496094 102.171875 51.921875 78.917969 51.882812 C 55.664062 51.84375 36.804688 58.363281 36.800781 66.4375 C 36.792969 66.890625 36.847656 67.34375 36.96875 67.78125 C 17.445312 70.332031 4.433594 74.914062 4.425781 80.175781 C 4.425781 88.25 35.089844 94.839844 72.949219 94.902344 C 110.808594 94.960938 141.511719 88.464844 141.527344 80.390625 C 141.53125 76.171875 133.265625 72.382812 120.023438 69.691406 Z M 120.023438 69.691406 "/>
</g>
</svg>
