<?xml version="1.0" encoding="UTF-8"?>
<svg xmlns="http://www.w3.org/2000/svg" xmlns:xlink="http://www.w3.org/1999/xlink" width="176pt" height="178pt" viewBox="0 0 176 178" version="1.1">
<g id="surface1">
<path style=" stroke:none;fill-rule:nonzero;fill:rgb(83.921569%,83.137255%,80.784314%);fill-opacity:1;" d="M 175.882812 40.96875 C 175.882812 63.597656 157.449219 81.941406 134.710938 81.941406 C 111.96875 81.941406 93.535156 63.597656 93.535156 40.96875 C 93.535156 18.34375 111.96875 0 134.710938 0 C 157.449219 0 175.882812 18.34375 175.882812 40.96875 Z M 175.882812 40.96875 "/>
<path style=" stroke:none;fill-rule:nonzero;fill:rgb(73.72549%,73.333333%,69.411765%);fill-opacity:1;" d="M 144.167969 73.996094 C 128 74.011719 113.316406 64.609375 106.640625 49.957031 C 99.960938 35.308594 102.523438 18.121094 113.191406 6.03125 C 99.367188 14.453125 91.792969 30.164062 93.847656 46.160156 C 95.902344 62.160156 107.195312 75.472656 122.703125 80.167969 C 138.210938 84.863281 155.046875 80.066406 165.707031 67.917969 C 159.230469 71.890625 151.773438 73.996094 144.167969 73.996094 Z M 144.167969 73.996094 "/>
<path style=" stroke:none;fill-rule:nonzero;fill:rgb(90.588235%,89.803922%,83.137255%);fill-opacity:1;" d="M 139.472656 16.703125 C 139.472656 21.164062 135.835938 24.78125 131.351562 24.78125 C 126.867188 24.78125 123.234375 21.164062 123.234375 16.703125 C 123.234375 12.242188 126.867188 8.625 131.351562 8.625 C 135.835938 8.625 139.472656 12.242188 139.472656 16.703125 Z M 139.472656 16.703125 "/>
<path style=" stroke:none;fill-rule:nonzero;fill:rgb(90.588235%,89.803922%,83.137255%);fill-opacity:1;" d="M 166.945312 27.921875 C 166.945312 35.128906 161.078125 40.96875 153.835938 40.96875 C 146.59375 40.96875 140.722656 35.128906 140.722656 27.921875 C 140.722656 20.71875 146.59375 14.875 153.835938 14.875 C 161.078125 14.875 166.945312 20.71875 166.945312 27.921875 Z M 166.945312 27.921875 "/>
<path style=" stroke:none;fill-rule:nonzero;fill:rgb(90.588235%,89.803922%,83.137255%);fill-opacity:1;" d="M 131.34375 36.929688 C 131.34375 39.160156 129.527344 40.96875 127.285156 40.96875 C 125.042969 40.96875 123.222656 39.160156 123.222656 36.929688 C 123.222656 34.699219 125.042969 32.890625 127.285156 32.890625 C 129.527344 32.890625 131.34375 34.699219 131.34375 36.929688 Z M 131.34375 36.929688 "/>
<path style=" stroke:none;fill-rule:nonzero;fill:rgb(90.588235%,89.803922%,83.137255%);fill-opacity:1;" d="M 109.457031 47.066406 C 109.457031 49.296875 107.640625 51.105469 105.398438 51.105469 C 103.15625 51.105469 101.339844 49.296875 101.339844 47.066406 C 101.339844 44.835938 103.15625 43.027344 105.398438 43.027344 C 107.640625 43.027344 109.457031 44.835938 109.457031 47.066406 Z M 109.457031 47.066406 "/>
<path style=" stroke:none;fill-rule:nonzero;fill:rgb(90.588235%,89.803922%,83.137255%);fill-opacity:1;" d="M 119.953125 26.488281 C 119.953125 29.949219 117.132812 32.757812 113.652344 32.757812 C 110.171875 32.757812 107.351562 29.949219 107.351562 26.488281 C 107.351562 23.023438 110.171875 20.21875 113.652344 20.21875 C 117.132812 20.21875 119.953125 23.023438 119.953125 26.488281 Z M 119.953125 26.488281 "/>
<path style=" stroke:none;fill-rule:nonzero;fill:rgb(90.588235%,89.803922%,83.137255%);fill-opacity:1;" d="M 164.082031 55.519531 C 164.082031 57.957031 162.09375 59.933594 159.644531 59.933594 C 157.195312 59.933594 155.210938 57.957031 155.210938 55.519531 C 155.210938 53.082031 157.195312 51.105469 159.644531 51.105469 C 162.09375 51.105469 164.082031 53.082031 164.082031 55.519531 Z M 164.082031 55.519531 "/>
<path style=" stroke:none;fill-rule:nonzero;fill:rgb(90.588235%,89.803922%,83.137255%);fill-opacity:1;" d="M 126.820312 66.671875 C 126.820312 70.136719 124 72.941406 120.519531 72.941406 C 117.039062 72.941406 114.21875 70.136719 114.21875 66.671875 C 114.21875 63.210938 117.039062 60.402344 120.519531 60.402344 C 124 60.402344 126.820312 63.210938 126.820312 66.671875 Z M 126.820312 66.671875 "/>
<path style=" stroke:none;fill-rule:nonzero;fill:rgb(85.882353%,85.882353%,85.490196%);fill-opacity:1;" d="M 142.667969 65.820312 C 139.050781 50.332031 124.292969 38.691406 106.628906 38.691406 L 104.964844 38.691406 C 96.09375 24.417969 79.039062 14.761719 59.453125 14.761719 C 30.765625 14.761719 7.503906 35.5625 7.503906 61.226562 C 7.507812 63.84375 7.75 66.453125 8.234375 69.027344 C 3.164062 73.34375 0.203125 79.621094 0.105469 86.257812 C 0.15625 91.855469 2.300781 97.234375 6.117188 101.34375 C 5.613281 100.527344 5.34375 99.59375 5.328125 98.632812 C 5.328125 91.65625 20.625 85.53125 43.578125 82.113281 C 43.445312 81.539062 43.375 80.949219 43.378906 80.359375 C 43.378906 69.640625 65.503906 60.949219 92.890625 60.949219 C 120.28125 60.949219 142.40625 69.648438 142.40625 80.371094 C 142.390625 81.824219 142 83.253906 141.269531 84.515625 C 156.847656 88.058594 166.570312 93.074219 166.570312 98.644531 C 166.5625 99.300781 166.429688 99.949219 166.175781 100.558594 C 169.042969 97.402344 170.667969 93.324219 170.757812 89.070312 C 170.757812 77.9375 158.835938 68.558594 142.667969 65.820312 Z M 142.667969 65.820312 "/>
<path style=" stroke:none;fill-rule:nonzero;fill:rgb(80.784314%,80.784314%,80.392157%);fill-opacity:1;" d="M 141.269531 84.523438 C 142 83.261719 142.390625 81.835938 142.40625 80.378906 C 142.40625 69.660156 120.28125 60.957031 92.890625 60.957031 C 65.503906 60.957031 43.398438 69.660156 43.398438 80.378906 C 43.394531 80.96875 43.464844 81.558594 43.597656 82.132812 C 20.644531 85.550781 5.347656 91.703125 5.347656 98.644531 C 5.347656 109.375 41.445312 118.066406 85.976562 118.066406 C 130.507812 118.066406 166.589844 109.375 166.589844 98.644531 C 166.535156 93.082031 156.835938 88.066406 141.269531 84.523438 Z M 141.269531 84.523438 "/>
<path style=" stroke:none;fill-rule:nonzero;fill:rgb(33.72549%,79.215686%,95.686275%);fill-opacity:1;" d="M 49.089844 148.46875 C 46.070312 149.019531 43.148438 147.125 42.433594 144.152344 L 38.039062 128.03125 C 37.136719 125.238281 38.667969 122.242188 41.472656 121.332031 L 41.636719 121.28125 C 44.640625 120.753906 47.542969 122.644531 48.253906 125.601562 L 52.652344 141.71875 C 53.554688 144.515625 52.015625 147.511719 49.207031 148.421875 Z M 49.089844 148.46875 "/>
<path style=" stroke:none;fill-rule:nonzero;fill:rgb(33.72549%,79.215686%,95.686275%);fill-opacity:1;" d="M 85.351562 148.46875 C 82.347656 148.992188 79.453125 147.101562 78.742188 144.152344 L 74.34375 128.03125 C 73.441406 125.238281 74.976562 122.242188 77.777344 121.332031 L 77.933594 121.28125 C 80.9375 120.753906 83.839844 122.644531 84.550781 125.601562 L 88.949219 141.71875 C 89.851562 144.515625 88.308594 147.511719 85.503906 148.421875 Z M 85.351562 148.46875 "/>
<path style=" stroke:none;fill-rule:nonzero;fill:rgb(33.72549%,79.215686%,95.686275%);fill-opacity:1;" d="M 121.578125 148.09375 C 118.574219 148.625 115.671875 146.734375 114.960938 143.777344 L 110.5625 127.660156 C 109.660156 124.863281 111.195312 121.871094 114 120.957031 L 114.160156 120.957031 C 117.167969 120.429688 120.070312 122.320312 120.78125 125.273438 L 125.167969 141.328125 C 126.082031 144.117188 124.554688 147.117188 121.753906 148.027344 Z M 121.578125 148.09375 "/>
<path style=" stroke:none;fill-rule:nonzero;fill:rgb(33.72549%,79.215686%,95.686275%);fill-opacity:1;" d="M 157.796875 148.46875 C 154.796875 148.992188 151.902344 147.101562 151.1875 144.152344 L 146.792969 128.03125 C 145.890625 125.238281 147.425781 122.242188 150.226562 121.332031 L 150.382812 121.28125 C 153.386719 120.753906 156.289062 122.644531 157 125.601562 L 161.394531 141.71875 C 162.300781 144.515625 160.757812 147.511719 157.953125 148.421875 Z M 157.796875 148.46875 "/>
<path style=" stroke:none;fill-rule:nonzero;fill:rgb(33.72549%,79.215686%,95.686275%);fill-opacity:1;" d="M 73.855469 177.914062 C 70.84375 178.441406 67.941406 176.546875 67.234375 173.585938 L 62.847656 157.476562 C 61.9375 154.6875 63.464844 151.691406 66.261719 150.777344 L 66.4375 150.777344 C 69.441406 150.246094 72.34375 152.140625 73.054688 155.09375 L 77.453125 171.214844 C 78.355469 174.007812 76.8125 177.003906 74.007812 177.914062 Z M 73.855469 177.914062 "/>
<path style=" stroke:none;fill-rule:nonzero;fill:rgb(33.72549%,79.215686%,95.686275%);fill-opacity:1;" d="M 110.082031 177.914062 C 107.074219 178.441406 104.171875 176.546875 103.464844 173.585938 L 99.117188 157.476562 C 98.210938 154.683594 99.746094 151.6875 102.550781 150.777344 L 102.714844 150.777344 C 105.71875 150.253906 108.613281 152.144531 109.324219 155.09375 L 113.71875 171.214844 C 114.625 174.011719 113.078125 177.011719 110.265625 177.914062 Z M 110.082031 177.914062 "/>
<path style=" stroke:none;fill-rule:nonzero;fill:rgb(33.72549%,79.215686%,95.686275%);fill-opacity:1;" d="M 146.332031 177.539062 C 143.324219 178.070312 140.425781 176.175781 139.710938 173.222656 L 135.324219 157.085938 C 134.414062 154.296875 135.941406 151.300781 138.742188 150.382812 L 138.914062 150.382812 C 141.921875 149.855469 144.820312 151.746094 145.53125 154.699219 L 149.898438 170.792969 C 150.804688 173.578125 149.28125 176.570312 146.484375 177.492188 Z M 146.332031 177.539062 "/>
</g>
</svg>
