<?xml version="1.0" encoding="UTF-8"?>
<svg xmlns="http://www.w3.org/2000/svg" xmlns:xlink="http://www.w3.org/1999/xlink" width="176pt" height="181pt" viewBox="0 0 176 181" version="1.1">
<defs>
<linearGradient id="linear0" gradientUnits="userSpaceOnUse" x1="849.12" y1="-169.61" x2="859.16" y2="-137.25" gradientTransform="matrix(0.930549,0,0,-0.927539,-667.815036,-96.890745)">
<stop offset="0" style="stop-color:rgb(100%,75.686275%,19.607843%);stop-opacity:1;"/>
<stop offset="1" style="stop-color:rgb(100%,75.686275%,5.490196%);stop-opacity:1;"/>
</linearGradient>
</defs>
<g id="surface1">
<path style=" stroke:none;fill-rule:nonzero;fill:url(#linear0);" d="M 161.089844 85.585938 L 155.238281 63.785156 C 155.589844 63.007812 155.917969 62.21875 156.222656 61.414062 L 175.820312 50.132812 L 156.222656 38.855469 C 155.917969 38.046875 155.589844 37.257812 155.238281 36.480469 L 161.089844 14.683594 L 139.222656 20.527344 C 138.449219 20.164062 137.660156 19.839844 136.847656 19.542969 L 125.523438 0 L 114.207031 19.542969 C 113.398438 19.839844 112.609375 20.164062 111.828125 20.527344 L 89.957031 14.683594 L 95.839844 36.480469 C 95.476562 37.257812 95.152344 38.046875 94.851562 38.855469 L 75.246094 50.132812 L 94.851562 61.414062 C 95.152344 62.21875 95.476562 63.007812 95.839844 63.785156 L 89.976562 85.585938 L 111.84375 79.742188 C 112.628906 80.101562 113.417969 80.425781 114.226562 80.722656 L 125.542969 100.265625 L 136.878906 80.722656 C 137.6875 80.425781 138.476562 80.101562 139.25 79.742188 Z M 161.089844 85.585938 "/>
<path style=" stroke:none;fill-rule:nonzero;fill:rgb(100%,94.509804%,0%);fill-opacity:1;" d="M 151.105469 50.132812 C 151.105469 64.214844 139.652344 75.632812 125.523438 75.632812 C 111.398438 75.632812 99.945312 64.214844 99.945312 50.132812 C 99.945312 36.050781 111.398438 24.636719 125.523438 24.636719 C 139.652344 24.636719 151.105469 36.050781 151.105469 50.132812 Z M 151.105469 50.132812 "/>
<path style=" stroke:none;fill-rule:nonzero;fill:rgb(85.882353%,85.882353%,85.490196%);fill-opacity:1;" d="M 138.078125 72.300781 C 134.578125 57.292969 120.304688 46.015625 103.21875 46.015625 L 101.609375 46.015625 C 93.03125 32.1875 76.53125 22.828125 57.585938 22.828125 C 29.835938 22.828125 7.335938 42.980469 7.335938 67.847656 C 7.339844 70.386719 7.574219 72.917969 8.042969 75.410156 C 3.140625 79.589844 0.273438 85.671875 0.179688 92.105469 C 0.226562 97.527344 2.300781 102.738281 5.996094 106.722656 C 5.507812 105.933594 5.246094 105.023438 5.230469 104.097656 C 5.230469 97.335938 20.027344 91.398438 42.230469 88.089844 C 42.101562 87.53125 42.035156 86.960938 42.035156 86.390625 C 42.035156 76.003906 63.4375 67.582031 89.929688 67.582031 C 116.421875 67.582031 137.828125 76.011719 137.828125 86.398438 C 137.808594 87.808594 137.433594 89.191406 136.726562 90.417969 C 151.792969 93.847656 161.203125 98.707031 161.203125 104.105469 C 161.191406 104.742188 161.0625 105.375 160.820312 105.960938 C 163.59375 102.902344 165.164062 98.953125 165.25 94.832031 C 165.25 84.042969 153.71875 74.953125 138.078125 72.300781 Z M 138.078125 72.300781 "/>
<path style=" stroke:none;fill-rule:nonzero;fill:rgb(80.784314%,80.784314%,80.392157%);fill-opacity:1;" d="M 136.726562 90.425781 C 137.433594 89.203125 137.808594 87.820312 137.828125 86.410156 C 137.828125 76.019531 116.421875 67.589844 89.929688 67.589844 C 63.4375 67.589844 42.054688 76.019531 42.054688 86.410156 C 42.054688 86.980469 42.117188 87.550781 42.25 88.105469 C 20.046875 91.417969 5.25 97.382812 5.25 104.105469 C 5.25 114.503906 40.164062 122.925781 83.242188 122.925781 C 126.316406 122.925781 161.21875 114.503906 161.21875 104.105469 C 161.164062 98.71875 151.785156 93.859375 136.726562 90.425781 Z M 136.726562 90.425781 "/>
<path style=" stroke:none;fill-rule:nonzero;fill:rgb(33.72549%,79.215686%,95.686275%);fill-opacity:1;" d="M 47.5625 152.386719 C 44.640625 152.921875 41.8125 151.082031 41.125 148.203125 L 36.871094 132.582031 C 35.996094 129.875 37.480469 126.972656 40.191406 126.089844 L 40.351562 126.042969 C 43.257812 125.53125 46.066406 127.363281 46.753906 130.226562 L 51.007812 145.847656 C 51.878906 148.554688 50.390625 151.457031 47.675781 152.339844 Z M 47.5625 152.386719 "/>
<path style=" stroke:none;fill-rule:nonzero;fill:rgb(33.72549%,79.215686%,95.686275%);fill-opacity:1;" d="M 82.636719 152.386719 C 79.730469 152.894531 76.929688 151.0625 76.242188 148.203125 L 71.988281 132.582031 C 71.117188 129.875 72.601562 126.972656 75.3125 126.089844 L 75.460938 126.042969 C 78.367188 125.53125 81.175781 127.363281 81.863281 130.226562 L 86.117188 145.847656 C 86.988281 148.554688 85.5 151.457031 82.785156 152.339844 Z M 82.636719 152.386719 "/>
<path style=" stroke:none;fill-rule:nonzero;fill:rgb(33.72549%,79.215686%,95.686275%);fill-opacity:1;" d="M 117.679688 152.023438 C 114.773438 152.535156 111.964844 150.703125 111.277344 147.839844 L 107.023438 132.222656 C 106.152344 129.515625 107.636719 126.613281 110.347656 125.726562 L 110.503906 125.726562 C 113.414062 125.214844 116.21875 127.046875 116.90625 129.910156 L 121.152344 145.464844 C 122.039062 148.167969 120.558594 151.074219 117.847656 151.957031 Z M 117.679688 152.023438 "/>
<path style=" stroke:none;fill-rule:nonzero;fill:rgb(33.72549%,79.215686%,95.686275%);fill-opacity:1;" d="M 152.714844 152.386719 C 149.808594 152.894531 147.011719 151.0625 146.320312 148.203125 L 142.070312 132.582031 C 141.195312 129.875 142.679688 126.972656 145.390625 126.089844 L 145.539062 126.042969 C 148.449219 125.53125 151.253906 127.363281 151.941406 130.226562 L 156.195312 145.847656 C 157.066406 148.554688 155.578125 151.457031 152.863281 152.339844 Z M 152.714844 152.386719 "/>
<path style=" stroke:none;fill-rule:nonzero;fill:rgb(33.72549%,79.215686%,95.686275%);fill-opacity:1;" d="M 71.515625 180.917969 C 68.605469 181.429688 65.796875 179.589844 65.113281 176.722656 L 60.871094 161.113281 C 59.988281 158.410156 61.464844 155.507812 64.171875 154.621094 L 64.339844 154.621094 C 67.25 154.109375 70.054688 155.941406 70.742188 158.804688 L 74.996094 174.421875 C 75.867188 177.132812 74.378906 180.035156 71.664062 180.917969 Z M 71.515625 180.917969 "/>
<path style=" stroke:none;fill-rule:nonzero;fill:rgb(33.72549%,79.215686%,95.686275%);fill-opacity:1;" d="M 106.558594 180.917969 C 103.648438 181.429688 100.839844 179.589844 100.15625 176.722656 L 95.953125 161.113281 C 95.078125 158.40625 96.5625 155.503906 99.273438 154.621094 L 99.433594 154.621094 C 102.335938 154.113281 105.136719 155.945312 105.824219 158.804688 L 110.078125 174.421875 C 110.953125 177.136719 109.457031 180.042969 106.738281 180.917969 Z M 106.558594 180.917969 "/>
<path style=" stroke:none;fill-rule:nonzero;fill:rgb(33.72549%,79.215686%,95.686275%);fill-opacity:1;" d="M 141.621094 180.554688 C 138.714844 181.066406 135.910156 179.234375 135.21875 176.371094 L 130.976562 160.734375 C 130.097656 158.03125 131.574219 155.128906 134.28125 154.242188 L 134.449219 154.242188 C 137.355469 153.726562 140.164062 155.5625 140.851562 158.421875 L 145.074219 174.015625 C 145.949219 176.71875 144.476562 179.617188 141.773438 180.507812 Z M 141.621094 180.554688 "/>
</g>
</svg>
