<?xml version="1.0" encoding="UTF-8"?>
<svg xmlns="http://www.w3.org/2000/svg" xmlns:xlink="http://www.w3.org/1999/xlink" width="176pt" height="94pt" viewBox="0 0 176 94" version="1.1">
<g id="surface1">
<path style=" stroke:none;fill-rule:nonzero;fill:rgb(85.882353%,85.882353%,85.490196%);fill-opacity:1;" d="M 147.054688 46.570312 C 143.339844 32.488281 128.136719 21.921875 109.949219 21.890625 C 109.363281 21.890625 108.792969 21.890625 108.214844 21.929688 C 99.105469 8.898438 81.535156 0.0585938 61.332031 0.0273438 C 31.773438 -0.0195312 7.71875 18.851562 7.679688 42.179688 C 7.679688 44.5625 7.929688 46.9375 8.425781 49.265625 C 3.21875 53.359375 0.0234375 58.851562 0.0195312 64.890625 C 0.0195312 70.035156 2.300781 74.78125 6.1875 78.59375 C 5.675781 77.859375 5.394531 76.992188 5.382812 76.101562 C 5.382812 69.753906 21.175781 64.214844 44.855469 61.152344 C 44.71875 60.632812 44.652344 60.097656 44.648438 59.5625 C 44.648438 49.816406 67.539062 41.949219 95.75 41.992188 C 123.957031 42.035156 146.804688 49.976562 146.785156 59.726562 C 146.765625 61.066406 146.355469 62.375 145.609375 63.492188 C 161.671875 66.734375 171.699219 71.3125 171.691406 76.367188 C 171.683594 76.980469 171.542969 77.582031 171.277344 78.132812 C 174.296875 75.015625 176.011719 71.484375 176.019531 67.703125 C 175.988281 57.625 163.742188 49.09375 147.054688 46.570312 Z M 147.054688 46.570312 "/>
<path style=" stroke:none;fill-rule:nonzero;fill:rgb(80.784314%,80.784314%,80.392157%);fill-opacity:1;" d="M 145.589844 63.574219 C 146.335938 62.453125 146.746094 61.148438 146.765625 59.804688 C 146.765625 50.066406 123.929688 42.121094 95.730469 42.078125 C 67.527344 42.035156 44.648438 49.894531 44.628906 59.644531 C 44.632812 60.179688 44.703125 60.714844 44.835938 61.234375 C 21.15625 64.308594 5.371094 69.847656 5.363281 76.179688 C 5.363281 85.929688 42.566406 93.890625 88.492188 93.964844 C 134.414062 94.039062 171.652344 86.199219 171.671875 76.449219 C 171.679688 71.398438 161.652344 66.820312 145.589844 63.574219 Z M 145.589844 63.574219 "/>
</g>
</svg>
