<?xml version="1.0" encoding="UTF-8"?>
<svg xmlns="http://www.w3.org/2000/svg" xmlns:xlink="http://www.w3.org/1999/xlink" width="176pt" height="170pt" viewBox="0 0 176 170" version="1.1">
<g id="surface1">
<path style=" stroke:none;fill-rule:nonzero;fill:rgb(85.882353%,85.882353%,85.490196%);fill-opacity:1;" d="M 147.027344 53.308594 C 143.296875 37.257812 128.078125 25.234375 109.863281 25.234375 C 109.277344 25.234375 108.703125 25.234375 108.125 25.234375 C 99 10.402344 81.40625 0.355469 61.207031 0.355469 C 31.621094 0.355469 7.628906 21.910156 7.628906 48.503906 C 7.632812 51.21875 7.886719 53.925781 8.382812 56.589844 C 3.15625 61.0625 0.101562 67.566406 0 74.445312 C 0.0546875 80.246094 2.265625 85.816406 6.199219 90.078125 C 5.683594 89.234375 5.402344 88.261719 5.386719 87.273438 C 5.386719 80.039062 21.164062 73.691406 44.835938 70.148438 C 44.695312 69.554688 44.625 68.945312 44.628906 68.335938 C 44.628906 57.226562 67.449219 48.21875 95.695312 48.21875 C 123.941406 48.21875 146.761719 57.234375 146.761719 68.34375 C 146.746094 69.851562 146.34375 71.332031 145.589844 72.640625 C 161.652344 76.308594 171.683594 81.507812 171.683594 87.28125 C 171.675781 87.960938 171.539062 88.636719 171.277344 89.265625 C 174.230469 85.996094 175.910156 81.769531 176 77.363281 C 176 65.855469 163.707031 56.144531 147.027344 53.308594 Z M 147.027344 53.308594 "/>
<path style=" stroke:none;fill-rule:nonzero;fill:rgb(80.784314%,80.784314%,80.392157%);fill-opacity:1;" d="M 145.589844 72.691406 C 146.339844 71.382812 146.742188 69.902344 146.761719 68.394531 C 146.761719 57.285156 123.941406 48.265625 95.695312 48.265625 C 67.449219 48.265625 44.628906 57.285156 44.628906 68.394531 C 44.628906 69.003906 44.699219 69.613281 44.835938 70.210938 C 21.164062 73.75 5.386719 80.128906 5.386719 87.320312 C 5.386719 98.441406 42.613281 107.449219 88.539062 107.449219 C 134.46875 107.449219 171.683594 98.441406 171.683594 87.320312 C 171.683594 81.558594 161.644531 76.359375 145.589844 72.691406 Z M 145.589844 72.691406 "/>
<path style=" stroke:none;fill-rule:nonzero;fill:rgb(33.72549%,79.215686%,95.686275%);fill-opacity:1;" d="M 50.519531 138.953125 C 47.421875 139.5 44.429688 137.539062 43.695312 134.480469 L 39.160156 117.773438 C 38.699219 116.351562 38.832031 114.804688 39.53125 113.484375 C 40.230469 112.160156 41.4375 111.179688 42.871094 110.761719 C 45.972656 110.214844 48.964844 112.171875 49.699219 115.234375 L 54.230469 131.941406 C 54.695312 133.363281 54.558594 134.910156 53.859375 136.230469 C 53.160156 137.554688 51.957031 138.535156 50.519531 138.953125 Z M 50.519531 138.953125 "/>
<path style=" stroke:none;fill-rule:nonzero;fill:rgb(33.72549%,79.215686%,95.686275%);fill-opacity:1;" d="M 87.914062 138.953125 C 84.820312 139.496094 81.832031 137.535156 81.097656 134.480469 L 76.566406 117.773438 C 76.101562 116.355469 76.234375 114.808594 76.933594 113.484375 C 77.628906 112.164062 78.832031 111.179688 80.265625 110.761719 C 83.367188 110.214844 86.359375 112.171875 87.09375 115.234375 L 91.625 131.941406 C 92.089844 133.363281 91.953125 134.910156 91.253906 136.230469 C 90.554688 137.554688 89.351562 138.535156 87.914062 138.953125 Z M 87.914062 138.953125 "/>
<path style=" stroke:none;fill-rule:nonzero;fill:rgb(33.72549%,79.215686%,95.686275%);fill-opacity:1;" d="M 125.28125 138.566406 C 122.179688 139.113281 119.1875 137.152344 118.453125 134.09375 L 113.921875 117.386719 C 113.457031 115.964844 113.589844 114.417969 114.289062 113.097656 C 114.988281 111.773438 116.195312 110.792969 117.632812 110.375 C 120.730469 109.824219 123.722656 111.785156 124.457031 114.847656 L 128.980469 131.554688 C 129.445312 132.972656 129.316406 134.523438 128.617188 135.84375 C 127.921875 137.167969 126.714844 138.148438 125.28125 138.566406 Z M 125.28125 138.566406 "/>
<path style=" stroke:none;fill-rule:nonzero;fill:rgb(33.72549%,79.215686%,95.686275%);fill-opacity:1;" d="M 162.636719 138.953125 C 159.539062 139.496094 156.554688 137.535156 155.820312 134.480469 L 151.285156 117.773438 C 150.824219 116.355469 150.953125 114.808594 151.652344 113.484375 C 152.347656 112.164062 153.550781 111.179688 154.984375 110.761719 C 158.085938 110.214844 161.078125 112.171875 161.8125 115.234375 L 166.347656 131.941406 C 166.808594 133.363281 166.675781 134.910156 165.976562 136.230469 C 165.277344 137.554688 164.070312 138.535156 162.636719 138.953125 Z M 162.636719 138.953125 "/>
<path style=" stroke:none;fill-rule:nonzero;fill:rgb(33.72549%,79.215686%,95.686275%);fill-opacity:1;" d="M 76.058594 169.464844 C 72.957031 170.011719 69.960938 168.046875 69.234375 164.980469 L 64.707031 148.289062 C 64.242188 146.867188 64.375 145.320312 65.070312 143.996094 C 65.769531 142.675781 66.972656 141.691406 68.410156 141.273438 C 71.511719 140.726562 74.503906 142.6875 75.234375 145.746094 L 79.769531 162.453125 C 80.230469 163.875 80.097656 165.421875 79.398438 166.746094 C 78.699219 168.066406 77.496094 169.046875 76.058594 169.464844 Z M 76.058594 169.464844 "/>
<path style=" stroke:none;fill-rule:nonzero;fill:rgb(33.72549%,79.215686%,95.686275%);fill-opacity:1;" d="M 113.425781 169.464844 C 110.320312 170.011719 107.328125 168.046875 106.597656 164.980469 L 102.113281 148.289062 C 101.652344 146.867188 101.785156 145.316406 102.484375 143.996094 C 103.183594 142.675781 104.386719 141.691406 105.824219 141.273438 C 108.921875 140.730469 111.90625 142.691406 112.640625 145.746094 L 117.175781 162.453125 C 117.636719 163.878906 117.496094 165.433594 116.789062 166.753906 C 116.082031 168.078125 114.867188 169.054688 113.425781 169.464844 Z M 113.425781 169.464844 "/>
<path style=" stroke:none;fill-rule:nonzero;fill:rgb(33.72549%,79.215686%,95.686275%);fill-opacity:1;" d="M 150.777344 169.078125 C 147.679688 169.628906 144.6875 167.667969 143.953125 164.605469 L 139.429688 147.878906 C 138.964844 146.460938 139.09375 144.910156 139.792969 143.589844 C 140.488281 142.265625 141.695312 141.285156 143.128906 140.867188 C 146.230469 140.320312 149.222656 142.28125 149.957031 145.339844 L 154.488281 162.046875 C 154.957031 163.46875 154.828125 165.023438 154.128906 166.351562 C 153.429688 167.675781 152.21875 168.660156 150.777344 169.078125 Z M 150.777344 169.078125 "/>
</g>
</svg>
