<?xml version="1.0" encoding="UTF-8"?>
<svg xmlns="http://www.w3.org/2000/svg" xmlns:xlink="http://www.w3.org/1999/xlink" width="176pt" height="146pt" viewBox="0 0 176 146" version="1.1">
<g id="surface1">
<path style=" stroke:none;fill-rule:nonzero;fill:rgb(80.784314%,80.784314%,80.784314%);fill-opacity:1;" d="M 147.027344 53.070312 C 143.296875 37.035156 128.078125 25.023438 109.863281 25.023438 C 109.277344 25.023438 108.703125 25.023438 108.125 25.023438 C 99 10.210938 81.40625 0.171875 61.207031 0.171875 C 31.621094 0.171875 7.628906 21.707031 7.628906 48.273438 C 7.632812 50.984375 7.886719 53.6875 8.382812 56.351562 C 3.15625 60.820312 0.101562 67.316406 0 74.1875 C 0.0546875 79.984375 2.265625 85.550781 6.199219 89.808594 C 5.683594 88.960938 5.402344 87.992188 5.386719 87.003906 C 5.386719 79.777344 21.164062 73.4375 44.835938 69.898438 C 44.695312 69.304688 44.625 68.695312 44.628906 68.085938 C 44.628906 56.984375 67.449219 47.988281 95.695312 47.988281 C 123.941406 47.988281 146.761719 56.996094 146.761719 68.09375 C 146.746094 69.601562 146.34375 71.078125 145.589844 72.386719 C 161.652344 76.050781 171.683594 81.246094 171.683594 87.011719 C 171.675781 87.695312 171.539062 88.367188 171.277344 88.996094 C 174.230469 85.726562 175.910156 81.503906 176 77.101562 C 176 65.605469 163.707031 55.90625 147.027344 53.070312 Z M 147.027344 53.070312 "/>
<path style=" stroke:none;fill-rule:nonzero;fill:rgb(74.901961%,74.901961%,74.901961%);fill-opacity:1;" d="M 145.589844 72.433594 C 146.339844 71.128906 146.742188 69.652344 146.761719 68.144531 C 146.761719 57.042969 123.941406 48.035156 95.695312 48.035156 C 67.449219 48.035156 44.628906 57.042969 44.628906 68.144531 C 44.628906 68.753906 44.699219 69.363281 44.835938 69.957031 C 21.164062 73.496094 5.386719 79.867188 5.386719 87.050781 C 5.386719 98.160156 42.613281 107.160156 88.539062 107.160156 C 134.46875 107.160156 171.683594 98.160156 171.683594 87.050781 C 171.683594 81.292969 161.644531 76.101562 145.589844 72.433594 Z M 145.589844 72.433594 "/>
<path style=" stroke:none;fill-rule:nonzero;fill:rgb(78.039216%,94.901961%,94.509804%);fill-opacity:1;" d="M 57.167969 86.511719 C 55.808594 82.480469 52.222656 80.050781 49.15625 81.082031 C 46.089844 82.113281 44.707031 86.21875 46.066406 90.246094 C 47.425781 94.277344 51.011719 96.707031 54.078125 95.675781 C 57.144531 94.644531 58.527344 90.542969 57.167969 86.511719 Z M 57.167969 86.511719 "/>
<path style=" stroke:none;fill-rule:nonzero;fill:rgb(78.039216%,94.901961%,94.509804%);fill-opacity:1;" d="M 83.839844 73.769531 C 82.472656 69.71875 78.886719 67.269531 75.828125 68.300781 C 72.769531 69.328125 71.398438 73.449219 72.765625 77.5 C 74.132812 81.550781 77.722656 83.996094 80.78125 82.96875 C 83.839844 81.9375 85.210938 77.816406 83.839844 73.769531 Z M 83.839844 73.769531 "/>
<path style=" stroke:none;fill-rule:nonzero;fill:rgb(78.039216%,94.901961%,94.509804%);fill-opacity:1;" d="M 117.328125 68.789062 C 115.9375 64.667969 112.328125 62.160156 109.269531 63.191406 C 106.210938 64.21875 104.863281 68.398438 106.253906 72.519531 C 107.648438 76.644531 111.253906 79.152344 114.3125 78.121094 C 117.371094 77.089844 118.722656 72.914062 117.328125 68.789062 Z M 117.328125 68.789062 "/>
<path style=" stroke:none;fill-rule:nonzero;fill:rgb(78.039216%,94.901961%,94.509804%);fill-opacity:1;" d="M 106.207031 94.59375 C 104.902344 90.730469 101.367188 88.433594 98.308594 89.460938 C 95.25 90.492188 93.828125 94.460938 95.132812 98.324219 C 96.4375 102.1875 99.976562 104.484375 103.03125 103.453125 C 106.089844 102.421875 107.511719 98.457031 106.207031 94.59375 Z M 106.207031 94.59375 "/>
<path style=" stroke:none;fill-rule:nonzero;fill:rgb(78.039216%,94.901961%,94.509804%);fill-opacity:1;" d="M 137.113281 85 C 135.886719 81.371094 132.410156 79.265625 129.34375 80.296875 C 126.277344 81.328125 124.785156 85.109375 126.007812 88.738281 C 127.234375 92.367188 130.710938 94.472656 133.777344 93.441406 C 136.84375 92.410156 138.335938 88.632812 137.113281 85 Z M 137.113281 85 "/>
<path style=" stroke:none;fill-rule:nonzero;fill:rgb(78.039216%,94.901961%,94.509804%);fill-opacity:1;" d="M 79.6875 105.90625 C 78.320312 101.863281 74.738281 99.425781 71.679688 100.457031 C 68.621094 101.484375 67.246094 105.597656 68.613281 109.636719 C 69.976562 113.675781 73.5625 116.117188 76.617188 115.085938 C 79.675781 114.054688 81.050781 109.945312 79.6875 105.90625 Z M 79.6875 105.90625 "/>
<path style=" stroke:none;fill-rule:nonzero;fill:rgb(78.039216%,94.901961%,94.509804%);fill-opacity:1;" d="M 49.421875 112.964844 C 48.203125 109.34375 44.730469 107.246094 41.671875 108.277344 C 38.613281 109.308594 37.125 113.078125 38.347656 116.695312 C 39.570312 120.316406 43.042969 122.414062 46.101562 121.386719 C 49.15625 120.355469 50.644531 116.585938 49.421875 112.964844 Z M 49.421875 112.964844 "/>
<path style=" stroke:none;fill-rule:nonzero;fill:rgb(78.039216%,94.901961%,94.509804%);fill-opacity:1;" d="M 65.777344 137.921875 C 64.511719 134.167969 61 131.960938 57.933594 132.992188 C 54.867188 134.023438 53.410156 137.90625 54.675781 141.660156 C 55.941406 145.414062 59.453125 147.621094 62.519531 146.589844 C 65.585938 145.558594 67.042969 141.675781 65.777344 137.921875 Z M 65.777344 137.921875 "/>
<path style=" stroke:none;fill-rule:nonzero;fill:rgb(78.039216%,94.901961%,94.509804%);fill-opacity:1;" d="M 101.882812 127.195312 C 100.5625 123.285156 97.011719 120.949219 93.953125 121.980469 C 90.894531 123.011719 89.488281 127.015625 90.808594 130.925781 C 92.128906 134.835938 95.679688 137.171875 98.738281 136.140625 C 101.792969 135.109375 103.203125 131.105469 101.882812 127.195312 Z M 101.882812 127.195312 "/>
<path style=" stroke:none;fill-rule:nonzero;fill:rgb(78.039216%,94.901961%,94.509804%);fill-opacity:1;" d="M 127.84375 113.265625 C 126.578125 109.519531 123.074219 107.320312 120.015625 108.351562 C 116.960938 109.378906 115.503906 113.25 116.769531 116.996094 C 118.035156 120.738281 121.539062 122.941406 124.597656 121.910156 C 127.65625 120.878906 129.109375 117.007812 127.84375 113.265625 Z M 127.84375 113.265625 "/>
</g>
</svg>
