<?xml version="1.0" encoding="UTF-8"?>
<svg xmlns="http://www.w3.org/2000/svg" xmlns:xlink="http://www.w3.org/1999/xlink" width="176pt" height="180pt" viewBox="0 0 176 180" version="1.1">
<g id="surface1">
<path style=" stroke:none;fill-rule:nonzero;fill:rgb(85.882353%,85.882353%,85.490196%);fill-opacity:1;" d="M 147.03125 56.417969 C 143.191406 39.023438 127.722656 26.640625 109.855469 26.65625 C 109.277344 26.65625 108.699219 26.65625 108.121094 26.691406 C 98.992188 10.957031 81.40625 0.296875 61.207031 0.296875 C 31.617188 0.296875 7.628906 23.171875 7.628906 51.390625 C 7.632812 54.261719 7.886719 57.128906 8.390625 59.960938 C 3.109375 64.847656 0.0820312 71.6875 0.0234375 78.871094 C 0.0664062 84.953125 2.265625 90.824219 6.230469 95.449219 C 5.710938 94.539062 5.429688 93.515625 5.417969 92.46875 C 5.417969 84.792969 21.195312 78.058594 44.867188 74.269531 C 44.730469 73.636719 44.660156 72.996094 44.660156 72.351562 C 44.660156 60.558594 67.484375 51.003906 95.730469 51.003906 C 123.972656 51.003906 146.796875 60.558594 146.796875 72.351562 C 146.777344 73.9375 146.378906 75.5 145.625 76.898438 C 161.691406 80.789062 171.726562 86.3125 171.726562 92.429688 C 171.71875 93.160156 171.578125 93.882812 171.3125 94.5625 C 174.292969 91.019531 175.957031 86.5625 176.03125 81.941406 C 175.992188 69.734375 163.699219 59.429688 147.03125 56.417969 Z M 147.03125 56.417969 "/>
<path style=" stroke:none;fill-rule:nonzero;fill:rgb(80.784314%,80.784314%,80.392157%);fill-opacity:1;" d="M 145.585938 76.984375 C 146.339844 75.582031 146.742188 74.023438 146.757812 72.433594 C 146.757812 60.640625 123.890625 51.085938 95.691406 51.085938 C 67.492188 51.085938 44.625 60.640625 44.625 72.433594 C 44.625 73.082031 44.691406 73.726562 44.828125 74.359375 C 21.15625 78.152344 5.378906 84.847656 5.378906 92.558594 C 5.378906 104.351562 42.609375 113.90625 88.53125 113.90625 C 134.457031 113.90625 171.6875 104.304688 171.6875 92.515625 C 171.6875 86.394531 161.652344 80.875 145.585938 76.984375 Z M 145.585938 76.984375 "/>
<path style=" stroke:none;fill-rule:nonzero;fill:rgb(33.72549%,79.215686%,95.686275%);fill-opacity:1;" d="M 49.726562 145.472656 C 47.261719 146.046875 44.777344 144.578125 44.097656 142.144531 L 38.835938 122.824219 C 38.519531 121.667969 38.683594 120.4375 39.296875 119.40625 C 39.910156 118.378906 40.914062 117.640625 42.082031 117.363281 L 43.734375 116.96875 C 46.199219 116.398438 48.679688 117.859375 49.363281 120.289062 L 54.628906 139.644531 C 54.945312 140.796875 54.777344 142.027344 54.167969 143.054688 C 53.554688 144.082031 52.554688 144.820312 51.386719 145.09375 Z M 49.726562 145.472656 "/>
<path style=" stroke:none;fill-rule:nonzero;fill:rgb(33.72549%,79.215686%,95.686275%);fill-opacity:1;" d="M 87.085938 145.472656 C 84.621094 146.046875 82.136719 144.578125 81.457031 142.144531 L 76.214844 122.824219 C 75.898438 121.667969 76.066406 120.4375 76.679688 119.40625 C 77.289062 118.378906 78.296875 117.640625 79.464844 117.363281 L 81.117188 116.96875 C 83.582031 116.402344 86.0625 117.863281 86.753906 120.289062 L 91.984375 139.644531 C 92.304688 140.796875 92.140625 142.027344 91.527344 143.054688 C 90.917969 144.085938 89.914062 144.820312 88.746094 145.09375 Z M 87.085938 145.472656 "/>
<path style=" stroke:none;fill-rule:nonzero;fill:rgb(33.72549%,79.215686%,95.686275%);fill-opacity:1;" d="M 124.445312 145.085938 C 121.980469 145.65625 119.5 144.1875 118.816406 141.757812 L 113.558594 122.4375 C 113.242188 121.285156 113.40625 120.050781 114.015625 119.019531 C 114.628906 117.992188 115.632812 117.253906 116.800781 116.976562 L 118.453125 116.582031 C 120.921875 116.015625 123.402344 117.480469 124.089844 119.910156 L 129.34375 139.234375 C 129.664062 140.386719 129.5 141.621094 128.886719 142.648438 C 128.277344 143.679688 127.273438 144.417969 126.105469 144.691406 Z M 124.445312 145.085938 "/>
<path style=" stroke:none;fill-rule:nonzero;fill:rgb(33.72549%,79.215686%,95.686275%);fill-opacity:1;" d="M 161.8125 145.472656 C 159.34375 146.042969 156.863281 144.578125 156.175781 142.144531 L 150.917969 122.824219 C 150.597656 121.671875 150.765625 120.4375 151.375 119.40625 C 151.988281 118.378906 152.992188 117.640625 154.160156 117.363281 L 155.808594 116.96875 C 158.277344 116.402344 160.757812 117.863281 161.449219 120.289062 L 166.742188 139.644531 C 167.0625 140.796875 166.898438 142.027344 166.285156 143.054688 C 165.671875 144.085938 164.667969 144.820312 163.5 145.09375 Z M 161.8125 145.472656 "/>
<path style=" stroke:none;fill-rule:nonzero;fill:rgb(33.72549%,79.215686%,95.686275%);fill-opacity:1;" d="M 75.226562 175.898438 C 72.761719 176.464844 70.28125 175 69.597656 172.570312 L 64.335938 153.238281 C 64.015625 152.085938 64.183594 150.855469 64.796875 149.824219 C 65.410156 148.796875 66.414062 148.0625 67.582031 147.789062 L 69.234375 147.394531 C 71.699219 146.820312 74.183594 148.28125 74.871094 150.714844 L 80.125 170.042969 C 80.445312 171.195312 80.277344 172.425781 79.667969 173.457031 C 79.054688 174.484375 78.050781 175.21875 76.886719 175.496094 Z M 75.226562 175.898438 "/>
<path style=" stroke:none;fill-rule:nonzero;fill:rgb(33.72549%,79.215686%,95.686275%);fill-opacity:1;" d="M 149.953125 175.511719 C 147.484375 176.078125 145.003906 174.613281 144.316406 172.183594 L 139.058594 152.859375 C 138.738281 151.707031 138.90625 150.472656 139.515625 149.445312 C 140.128906 148.414062 141.132812 147.675781 142.300781 147.402344 L 143.949219 147.007812 C 146.421875 146.433594 148.90625 147.902344 149.585938 150.335938 L 154.84375 169.65625 C 155.164062 170.808594 155 172.042969 154.386719 173.074219 C 153.777344 174.101562 152.773438 174.839844 151.605469 175.117188 Z M 149.953125 175.511719 "/>
<path style=" stroke:none;fill-rule:nonzero;fill:rgb(93.72549%,72.156863%,11.372549%);fill-opacity:1;" d="M 78.421875 90.316406 L 116.542969 117.316406 L 107.792969 146.355469 L 118.460938 179.71875 L 85.46875 146.503906 L 99.539062 125.21875 Z M 78.421875 90.316406 "/>
</g>
</svg>
